<svg width="21" height="18" viewBox="0 0 21 18" fill="none" xmlns="http://www.w3.org/2000/svg">
<path fill-rule="evenodd" clip-rule="evenodd" d="M21 9C21 9.62132 20.4963 10.125 19.875 10.125L3.91812 10.125L10.1547 16.0641C10.6026 16.4947 10.6166 17.2069 10.1859 17.6548C9.75529 18.1026 9.04312 18.1166 8.59525 17.6859L0.345253 9.81094C0.124664 9.59883 -4.06779e-07 9.30602 -3.93403e-07 9C-3.80026e-07 8.69398 0.124664 8.40117 0.345253 8.18906L8.59525 0.314064C9.04312 -0.116579 9.75529 -0.102615 10.1859 0.345254C10.6166 0.793122 10.6026 1.5053 10.1547 1.93594L3.91812 7.875L19.875 7.875C20.4963 7.875 21 8.37868 21 9Z" fill="#808080"/>
</svg>
