<svg width="22" height="21" viewBox="0 0 22 21" fill="none" xmlns="http://www.w3.org/2000/svg">
<g clip-path="url(#clip0_122_2010)">
<path d="M1.26946 13.7616H11.11V15.5697H17.2615V13.7655H19.7054C19.8637 15.9158 19.8761 17.8304 17.6707 19.2897C17.6437 19.3075 17.6221 19.3318 17.5623 19.385C17.8335 19.6103 18.1009 19.8329 18.3655 20.0529C18.0082 20.3945 17.7212 20.669 17.3922 20.9842C17.1019 20.6848 16.7879 20.3373 16.4458 20.0207C16.3453 19.9275 16.1673 19.8894 16.0215 19.8802C15.7831 19.8657 15.5414 19.9045 15.301 19.9052C12.1057 19.9071 8.91048 19.9065 5.71457 19.9065C5.56154 19.9065 5.398 19.936 5.25679 19.8933C4.83054 19.7653 4.55994 19.9629 4.30642 20.2684C4.09034 20.5284 3.84405 20.7629 3.61877 21.0007C3.31468 20.6808 3.03949 20.3918 2.73474 20.0707C2.939 19.89 3.19843 19.6602 3.49004 19.4014C3.28906 19.2576 3.13866 19.1577 2.99614 19.0474C1.92821 18.2244 1.3509 17.1329 1.27537 15.7924C1.23793 15.1284 1.2688 14.4604 1.2688 13.7616H1.26946Z" fill="white"/>
<path d="M1.27554 8.78709C1.27029 8.66821 1.26109 8.56116 1.26109 8.4541C1.26044 6.71363 1.25847 4.97381 1.26109 3.23333C1.26372 1.32078 2.59108 -0.0138086 4.50101 -1.61554e-05C5.14203 0.00458133 5.80275 -0.00855435 6.41882 0.136595C7.5117 0.394711 8.20001 1.15264 8.53235 2.22057C8.59671 2.42811 8.68012 2.5286 8.90803 2.59034C10.194 2.93909 11.0964 4.141 11.1128 5.48216C11.1155 5.69824 11.1128 5.91432 11.1128 6.14879H5.02578C4.73548 4.61389 5.56959 3.02973 7.31335 2.53517C7.15573 1.85014 6.48121 1.27217 5.7732 1.24722C5.23792 1.22817 4.70067 1.2262 4.16539 1.24722C3.24261 1.28334 2.50044 2.13059 2.4965 3.14663C2.48994 4.89762 2.49453 6.64926 2.49453 8.40025C2.49453 8.51978 2.49453 8.63932 2.49453 8.78644H1.27423L1.27554 8.78709Z" fill="white"/>
<path d="M11.0931 12.5327C10.9644 12.5327 10.8678 12.5327 10.7713 12.5327C7.64366 12.5327 4.5154 12.5334 1.38779 12.5321C0.714591 12.5321 0.230541 12.2135 0.0604342 11.6697C-0.195711 10.8514 0.384229 10.0632 1.26826 10.0514C2.20877 10.0389 3.14929 10.0481 4.0898 10.0481C6.29922 10.0481 8.50799 10.0481 10.7174 10.0481C10.8356 10.0481 10.9538 10.0481 11.0931 10.0481V12.5321V12.5327Z" fill="white"/>
<path d="M16.0237 14.3711H12.3634C12.3575 14.2555 12.3477 14.1504 12.3477 14.0453C12.3464 12.7771 12.3464 11.5082 12.3477 10.2399C12.3483 9.32242 12.8494 8.81801 13.763 8.81407C14.1019 8.81275 14.4408 8.80553 14.7797 8.81604C15.5409 8.84034 16.0381 9.35197 16.0401 10.1152C16.044 11.4386 16.0414 12.7613 16.0401 14.0848C16.0401 14.1708 16.0309 14.2562 16.0237 14.3711Z" fill="white"/>
<path d="M17.2832 12.5209V10.0482C17.8782 10.0482 18.4648 10.0462 19.0506 10.0488C19.356 10.0501 19.668 10.0252 19.9668 10.0744C20.619 10.1821 21.0433 10.7161 21.0164 11.3394C20.9901 11.9509 20.5389 12.4756 19.8985 12.5091C19.0394 12.5544 18.1764 12.5203 17.2839 12.5203L17.2832 12.5209Z" fill="white"/>
</g>
<defs>
<clipPath id="clip0_122_2010">
<rect width="21.0171" height="21" fill="white"/>
</clipPath>
</defs>
</svg>
