<svg width="22" height="17" viewBox="0 0 22 17" fill="none" xmlns="http://www.w3.org/2000/svg">
<g clip-path="url(#clip0_122_2006)">
<path d="M11.0119 15.4597C8.01369 15.4597 5.01627 15.4597 2.01806 15.4597C1.71493 15.4597 1.57479 15.5984 1.57479 15.8977C1.57479 15.9752 1.57872 16.0527 1.574 16.1295C1.5677 16.2225 1.55825 16.3155 1.54093 16.4062C1.47637 16.7372 1.15907 17.0023 0.779568 16.9984C0.398493 16.9946 0.0827672 16.7116 0.025291 16.3481C0.0119061 16.2628 0.00482004 16.1752 0.00482004 16.0891C0.00403269 14.3279 -0.00777748 12.5659 0.00875676 10.8046C0.0182049 9.77829 0.397705 8.88527 1.12521 8.14186C1.56691 7.69069 2.09207 7.36976 2.69282 7.16511C3.16522 7.00465 3.65338 6.95581 4.15098 6.95581C8.76246 6.95736 13.3739 6.95348 17.9854 6.95891C19.3365 6.96046 20.4309 7.4969 21.2419 8.56356C21.6403 9.08837 21.8781 9.68449 21.9592 10.3357C21.9867 10.555 21.9985 10.7783 21.9993 11C22.0025 12.7101 22.0017 14.4202 22.0009 16.1302C22.0009 16.3977 21.934 16.6411 21.7104 16.8178C21.4741 17.0046 21.2104 17.0535 20.9293 16.9395C20.66 16.8295 20.49 16.6271 20.4514 16.338C20.4317 16.1922 20.4341 16.0426 20.4301 15.8953C20.4238 15.6574 20.3238 15.5139 20.1239 15.4698C20.0798 15.4597 20.0333 15.4605 19.9876 15.4605C16.9965 15.4605 14.0054 15.4605 11.0135 15.4605L11.0119 15.4597Z" fill="white"/>
<path d="M10.9025 0C12.8472 0 14.7912 0 16.7351 0C17.3862 0 17.9949 0.143411 18.52 0.539535C19.1956 1.04884 19.59 1.71938 19.6231 2.56124C19.6514 3.27519 19.6388 3.9907 19.642 4.70543C19.6444 5.16589 19.642 5.62636 19.642 6.08682C19.642 6.12791 19.6396 6.17132 19.6286 6.21085C19.5948 6.33566 19.5263 6.38527 19.3971 6.36124C19.2562 6.33488 19.12 6.27829 18.979 6.26279C18.6476 6.22713 18.3153 6.20233 17.9823 6.18527C17.7602 6.17364 17.6917 6.13411 17.6602 5.91938C17.5595 5.23876 16.9194 4.62636 16.1005 4.63566C15.1872 4.64574 14.2739 4.63798 13.3613 4.63798C12.6819 4.63798 12.1016 5.03643 11.8709 5.66434C11.8378 5.75426 11.8252 5.85194 11.8079 5.94651C11.7756 6.11628 11.7119 6.17984 11.5402 6.18217C11.1804 6.18605 10.8198 6.18605 10.46 6.18217C10.2946 6.18062 10.2293 6.11628 10.1994 5.92791C10.1576 5.66357 10.0537 5.42791 9.88364 5.22093C9.57579 4.84574 9.17739 4.64186 8.68609 4.63953C7.74363 4.63488 6.80118 4.63721 5.85794 4.63876C5.06587 4.63953 4.44623 5.24884 4.34545 5.91783C4.31317 6.13411 4.24782 6.17209 4.02579 6.18605C3.6581 6.21008 3.29041 6.24419 2.92351 6.28295C2.81092 6.29457 2.70305 6.34264 2.59125 6.36124C2.47078 6.38062 2.41488 6.34031 2.38103 6.22403C2.36764 6.17829 2.36134 6.12946 2.36134 6.0814C2.36055 4.97674 2.3456 3.87209 2.36449 2.76744C2.38418 1.61163 2.92666 0.762016 3.988 0.248062C4.40844 0.0457364 4.86431 0 5.3257 0C7.18462 0 9.04354 0 10.9025 0Z" fill="white"/>
</g>
<defs>
<clipPath id="clip0_122_2006">
<rect width="22" height="17" fill="white"/>
</clipPath>
</defs>
</svg>
