<svg width="17" height="20" viewBox="0 0 17 20" fill="none" xmlns="http://www.w3.org/2000/svg">
<path d="M15.9004 0C16.3973 0.000211765 16.7998 0.403465 16.7998 0.900391C16.7996 1.39714 16.3971 1.79959 15.9004 1.7998H15.5996V17.4004H15.9004C16.3972 17.4006 16.7997 17.803 16.7998 18.2998C16.7998 18.7967 16.3973 19.2 15.9004 19.2002H11.7002C11.2031 19.2002 10.7998 18.7969 10.7998 18.2998V15.2998C10.7997 14.803 10.3972 14.4006 9.90039 14.4004H6.90039C6.4034 14.4004 6.00011 14.8028 6 15.2998V18.2998C6 18.7969 5.59667 19.2002 5.09961 19.2002H0.900391C0.403334 19.2002 0 18.7969 0 18.2998C0.000106156 17.8028 0.4034 17.4004 0.900391 17.4004H1.2002V1.7998H0.900391C0.403465 1.7998 0.000211024 1.39727 0 0.900391C0 0.403334 0.403334 0 0.900391 0H15.9004ZM5.40039 8.40039C5.06902 8.40039 4.79981 8.66863 4.7998 9V10.2002C4.79991 10.5315 5.06908 10.7998 5.40039 10.7998H6.59961C6.93092 10.7998 7.20009 10.5315 7.2002 10.2002V9C7.20019 8.66863 6.93098 8.40039 6.59961 8.40039H5.40039ZM10.2002 8.40039C9.86882 8.40039 9.59961 8.66863 9.59961 9V10.2002C9.59971 10.5315 9.86889 10.7998 10.2002 10.7998H11.4004C11.7315 10.7996 11.9999 10.5313 12 10.2002V9C12 8.66876 11.7316 8.4006 11.4004 8.40039H10.2002ZM5.40039 3.59961C5.06902 3.59961 4.7998 3.86882 4.7998 4.2002V5.40039C4.80002 5.73158 5.06915 6 5.40039 6H6.59961C6.93085 6 7.19998 5.73158 7.2002 5.40039V4.2002C7.2002 3.86882 6.93098 3.59961 6.59961 3.59961H5.40039ZM10.2002 3.59961C9.86882 3.59961 9.59961 3.86882 9.59961 4.2002V5.40039C9.59982 5.73158 9.86895 6 10.2002 6H11.4004C11.7315 5.99979 11.9998 5.73145 12 5.40039V4.2002C12 3.86895 11.7316 3.59982 11.4004 3.59961H10.2002Z" fill="white"/>
</svg>
