<svg width="25" height="25" viewBox="0 0 25 25" fill="none" xmlns="http://www.w3.org/2000/svg">
<path d="M24.2843 0.722873C23.6593 0.0841233 22.7343 -0.152127 21.8718 0.0978732L1.75928 5.90912C0.849275 6.16162 0.204275 6.88287 0.0305252 7.79787C-0.146975 8.73037 0.473025 9.91537 1.28303 10.4104L7.57178 14.2504C8.21677 14.6454 9.04928 14.5466 9.58302 14.0116L16.7843 6.81037C17.1468 6.43412 17.7468 6.43412 18.1093 6.81037C18.4718 7.17162 18.4718 7.76037 18.1093 8.13537L10.8955 15.3366C10.3605 15.8716 10.2605 16.7016 10.6543 17.3479L14.4968 23.6604C14.9468 24.4091 15.7218 24.8354 16.5718 24.8354C16.6718 24.8354 16.7843 24.8354 16.8843 24.8216C17.8593 24.6979 18.6343 24.0341 18.9218 23.0966L24.8843 3.13537C25.1468 2.28537 24.9093 1.36037 24.2843 0.722873Z" fill="white"/>
<path opacity="0.4" d="M9.31448 21.4277C9.67948 21.794 9.67948 22.3877 9.31448 22.754L7.60698 24.4602C7.42448 24.644 7.18448 24.7352 6.94448 24.7352C6.70448 24.7352 6.46448 24.644 6.28198 24.4602C5.91573 24.094 5.91573 23.5015 6.28198 23.1352L7.98823 21.4277C8.35448 21.0627 8.94823 21.0627 9.31448 21.4277ZM8.33486 16.6927C8.69986 17.059 8.69986 17.6527 8.33486 18.019L6.62736 19.7252C6.44486 19.909 6.20486 20.0002 5.96486 20.0002C5.72486 20.0002 5.48486 19.909 5.30236 19.7252C4.93611 19.359 4.93611 18.7665 5.30236 18.4002L7.00861 16.6927C7.37486 16.3277 7.96861 16.3277 8.33486 16.6927ZM3.63336 15.2022C3.99836 15.5685 3.99836 16.1622 3.63336 16.5285L1.92586 18.2347C1.74336 18.4185 1.50336 18.5097 1.26336 18.5097C1.02336 18.5097 0.783359 18.4185 0.600859 18.2347C0.234609 17.8685 0.234609 17.276 0.600859 16.9097L2.30711 15.2022C2.67336 14.8372 3.26711 14.8372 3.63336 15.2022Z" fill="white"/>
</svg>
